<svg xmlns="http://www.w3.org/2000/svg" class="img-fluid" id="outputsvg" style="transform: matrix(1, 0, 0, 1, -6.07812, -0.246094);transform-origin: 50% 50%;cursor: move;max-height: none;transition: none;" width="1536" height="1024" viewBox="0 0 15360 10240"><g id="l6AtKv5DoYq61Q7ykwuMInJ" fill="rgb(55,71,100)" style="transform: none;"><g style="transform: none;"><path id="ptKzYrJ9i" d="M2640 10100 c-210 -7 -271 -20 -395 -80 -309 -152 -463 -491 -433 -955 10 -158 29 -267 148 -840 55 -264 130 -622 166 -795 136 -657 193 -869 280 -1041 72 -144 137 -234 253 -350 209 -209 449 -333 1076 -556 116 -41 280 -103 365 -138 85 -34 185 -72 223 -85 41 -13 67 -27 67 -36 0 -8 7 -14 15 -14 11 0 15 11 15 37 0 50 66 182 129 260 105 128 290 242 461 283 105 25 265 27 359 4 288 -69 501 -315 476 -548 -6 -50 -4 -66 5 -66 7 0 18 6 24 13 6 8 74 27 151 42 516 103 779 195 1016 354 285 191 471 413 780 931 327 547 693 1111 847 1305 53 66 167 191 254 278 86 87 161 165 166 173 7 13 32 -2 135 -81 329 -252 681 -565 1137 -1009 372 -363 347 -342 370 -321 20 18 21 18 34 0 12 -17 37 3 315 266 267 252 300 285 284 296 -15 12 -14 16 16 47 l33 34 -23 34 c-138 198 -588 777 -838 1078 -288 346 -645 727 -847 900 -275 238 -485 306 -780 255 -293 -52 -533 -198 -883 -540 -269 -263 -745 -808 -880 -1007 -18 -27 -35 -48 -38 -48 -17 0 19 551 63 960 35 337 113 859 140 953 5 15 -2 17 -50 17 l-56 0 0 -34 c0 -49 -66 -133 -239 -306 -221 -220 -409 -340 -588 -377 -80 -17 -83 -17 -270 10 -103 16 -266 38 -360 50 l-173 22 0 37 c0 20 -6 39 -12 41 -8 4 -7 6 3 6 14 1 19 24 29 133 10 99 10 133 1 136 -16 5 -14 42 4 48 12 5 15 28 15 120 l0 114 -1402 -2 c-772 -1 -1486 -4 -1588 -8z m796 -1177 c-2 -10 -10 -94 -17 -188 -11 -141 -14 -163 -22 -130 -17 76 -68 290 -73 307 -4 13 3 18 28 21 78 9 90 8 84 -10z"/><path id="pLrQCJ9UD" d="M5400 4105 c0 -33 2 -35 35 -35 33 0 35 2 35 35 0 33 -2 35 -35 35 -33 0 -35 -2 -35 -35z"/><path id="pR7A4f3g6" d="M6040 3035 c0 -33 2 -35 35 -35 33 0 35 2 35 35 0 33 -2 35 -35 35 -33 0 -35 -2 -35 -35z"/><path id="pOWtKON5N" d="M4440 2285 c0 -33 2 -35 35 -35 33 0 35 2 35 35 0 33 -2 35 -35 35 -33 0 -35 -2 -35 -35z"/><path id="ps15V3ugH" d="M5577 2200 c-68 -11 -170 -46 -359 -125 -76 -31 -178 -66 -228 -78 l-90 -22 0 -37 c0 -45 7 -47 127 -22 122 24 163 36 163 45 0 5 7 9 15 9 8 0 23 4 33 9 9 5 67 30 127 56 61 25 117 50 127 55 36 20 194 42 255 37 76 -7 193 -37 211 -54 7 -7 24 -16 38 -19 13 -3 24 -10 24 -15 0 -5 11 -9 25 -9 18 0 25 -5 25 -20 0 -13 7 -20 20 -20 11 0 20 -5 20 -11 0 -6 19 -40 42 -75 40 -60 45 -64 80 -64 36 0 38 2 38 30 0 55 -66 160 -101 160 -12 0 -19 7 -19 20 0 13 -7 20 -20 20 -11 0 -20 5 -20 12 0 18 -49 57 -79 65 -14 3 -31 9 -37 14 -43 34 -299 57 -417 39z"/><path id="pc4194UlX" d="M4332 2133 c3 -33 7 -38 31 -41 18 -2 27 -9 27 -21 0 -19 39 -61 57 -61 5 0 18 -10 29 -21 29 -33 114 -69 162 -69 41 0 42 1 42 34 0 32 -4 36 -67 65 -36 17 -88 47 -115 66 -26 19 -57 35 -67 35 -13 0 -21 8 -23 23 -2 18 -10 23 -41 25 l-38 3 3 -38z"/><path id="p15rCG8vqR" d="M4760 1930 l0 -40 60 0 60 0 0 40 0 40 -60 0 -60 0 0 -40z"/></g></g><g id="l5A5ER2DyyBSTV7965ZijAV" fill="rgb(75,106,210)" style="fill: none;"><g style="transform: none;"><path id="pXfocLV63" d="M11445 5519 c-401 -48 -787 -206 -1118 -456 -441 -334 -744 -832 -854 -1403 -35 -182 -44 -522 -18 -705 36 -262 104 -485 219 -720 390 -794 1142 -1267 2016 -1267 362 0 674 67 977 212 714 340 1178 982 1287 1778 18 130 21 425 6 552 -94 777 -555 1440 -1242 1786 -173 87 -407 163 -628 205 -91 17 -163 22 -340 24 -124 2 -261 -1 -305 -6z m793 -1041 c13 -13 17 -192 6 -222 -5 -13 -23 -16 -91 -16 -88 0 -133 -14 -149 -47 -5 -10 -11 -335 -14 -723 l-5 -705 -385 0 -385 0 0 115 0 115 98 5 c82 4 101 8 113 24 12 17 14 113 14 582 0 577 -2 604 -39 620 -9 4 -54 10 -101 13 l-85 6 -3 109 c-2 71 1 113 9 122 16 19 998 21 1017 2z m-410 -2082 c102 -52 163 -135 181 -242 32 -205 -120 -384 -325 -384 -116 0 -247 85 -295 192 -36 80 -34 202 4 280 34 70 109 140 180 168 74 29 182 23 255 -14z" style="&#10;    fill: #646ecb;&#10;"/><path id="p11Fip1fPt" d="M5737 2203 c-13 -12 -7 -22 16 -26 l22 -4 -22 -8 c-35 -11 -27 -32 15 -39 60 -10 82 -7 82 9 0 8 -7 15 -15 15 -8 0 -15 5 -15 10 0 6 7 10 15 10 8 0 15 6 15 14 0 20 -96 36 -113 19z"/><path id="pdgFsP7kp" d="M5936 2151 c-3 -5 4 -12 17 -16 l22 -8 -22 -4 c-15 -3 -23 -12 -23 -24 0 -16 7 -19 40 -19 33 0 40 -3 40 -20 0 -11 6 -20 13 -20 7 0 18 -9 25 -20 7 -11 18 -20 26 -20 8 0 16 -7 20 -15 3 -8 17 -15 32 -15 19 0 25 4 20 15 -7 18 5 20 22 3 9 -9 12 -6 12 16 0 30 -53 96 -77 96 -7 0 -13 5 -13 10 0 6 -16 10 -35 10 -28 0 -35 4 -35 20 0 17 -7 20 -39 20 -22 0 -42 -4 -45 -9z m89 -43 c25 -11 34 -28 15 -28 -19 0 -59 23 -54 31 7 11 8 11 39 -3z"/><path id="p1D2NHfwtO" d="M5180 2050 c0 -5 -11 -10 -25 -10 -19 0 -25 -5 -25 -21 0 -15 5 -19 15 -15 9 3 15 0 15 -9 0 -8 -7 -15 -15 -15 -8 0 -15 -4 -15 -10 0 -5 18 -10 40 -10 22 0 40 5 40 10 0 6 11 10 25 10 20 0 25 5 25 24 0 20 -4 23 -22 19 -21 -4 -22 -3 -5 10 25 21 21 27 -18 27 -19 0 -35 -4 -35 -10z m25 -39 c-3 -6 -14 -11 -23 -11 -15 1 -15 2 2 15 21 16 32 13 21 -4z"/><path id="pbyF6A82b" d="M4950 1984 c-54 -14 -133 -14 -272 2 -60 7 -71 1 -40 -22 16 -13 16 -13 0 -14 -11 0 -18 -8 -18 -19 0 -31 83 -44 241 -38 163 6 229 20 229 48 0 10 -7 19 -15 19 -8 0 -15 5 -15 10 0 6 7 10 15 10 8 0 15 5 15 10 0 14 -74 11 -140 -6z m-100 -54 c0 -5 -13 -10 -30 -10 -16 0 -30 5 -30 10 0 6 14 10 30 10 17 0 30 -4 30 -10z"/></g></g><g id="l5O5cuLWJL7CfAbcTXSNqug" fill="rgb(255,191,157)" style="transform: none;"><g style="transform: none;"><path id="pj8UJ6kBA" d="M5599 10053 c0 -34 -3 -51 -8 -40 -3 10 -12 -51 -19 -135 -7 -84 -19 -202 -27 -263 -8 -60 -15 -125 -15 -142 0 -32 1 -33 44 -33 45 0 210 -21 501 -65 94 -13 200 -25 236 -25 138 0 294 61 463 181 144 103 369 328 465 467 18 26 21 40 16 72 l-7 40 -824 0 -824 0 -1 -57z m-2 -130 c-3 -10 -5 -2 -5 17 0 19 2 27 5 18 2 -10 2 -26 0 -35z"/><path id="pNzzkPf6a" d="M11051 7163 c-160 -151 -291 -278 -291 -283 0 -4 30 -77 66 -162 142 -329 194 -478 260 -736 39 -155 46 -170 81 -178 61 -16 116 57 128 169 6 56 -3 220 -22 374 -6 51 -5 55 13 50 148 -42 260 -83 309 -112 33 -20 190 -135 349 -256 241 -183 295 -219 322 -219 47 0 74 32 74 89 0 44 -2 47 -122 166 -68 67 -168 163 -223 215 -120 112 -116 109 164 -98 250 -185 293 -212 338 -212 64 0 95 79 59 149 -8 15 -126 117 -263 226 -248 198 -293 236 -263 220 8 -5 112 -72 230 -150 247 -163 274 -178 315 -177 56 2 84 70 49 120 -8 12 -52 50 -97 84 -118 89 -420 328 -432 341 -5 6 2 3 17 -6 129 -80 445 -247 468 -247 55 0 81 77 44 127 -21 27 -38 40 -394 280 -118 80 -231 160 -250 179 -44 41 -210 129 -452 237 l-186 84 -291 -274z"/><path id="pxH0RWWF3" d="M5115 5839 c-117 -8 -199 -30 -311 -84 -171 -83 -300 -206 -374 -360 l-38 -80 -32 -425 c-17 -234 -40 -517 -50 -630 -10 -113 -21 -245 -25 -295 -11 -152 -1 -140 -108 -140 -81 -1 -99 -4 -145 -28 -70 -37 -128 -97 -161 -166 -23 -49 -26 -69 -26 -156 0 -89 3 -106 27 -151 30 -56 87 -113 134 -133 25 -10 31 -17 26 -33 -5 -20 -2 -21 81 -16 104 5 135 23 197 115 24 34 47 60 52 57 50 -31 115 -320 125 -554 6 -156 -8 -244 -57 -348 -16 -35 -30 -78 -30 -96 0 -29 7 -36 103 -93 129 -79 175 -99 262 -114 91 -16 259 -6 353 21 40 11 122 42 181 69 367 166 637 233 811 201 36 -7 90 -14 120 -17 l55 -5 34 138 c29 117 32 142 22 169 -9 25 -7 59 9 166 11 74 26 204 34 289 59 621 74 987 47 1125 -58 295 -241 518 -488 597 l-73 23 0 38 c0 30 -4 37 -20 37 -11 0 -20 -7 -20 -15 0 -12 -18 -15 -102 -15 -167 -1 -375 -35 -517 -85 -24 -8 -46 -13 -48 -11 -4 4 84 66 93 66 3 0 18 8 32 18 15 10 47 27 72 36 52 21 210 56 251 56 15 0 31 5 34 10 3 6 33 10 66 10 33 0 59 -4 59 -10 0 -11 87 -14 93 -2 3 4 8 79 11 167 8 185 2 224 -53 329 -53 104 -146 192 -262 249 -143 70 -255 89 -444 76z m20 -2589 c18 -20 18 -21 -8 -47 -26 -26 -27 -26 -47 -8 -23 20 -26 45 -8 63 18 18 43 15 63 -8z m876 -41 c9 -18 7 -25 -11 -43 l-21 -21 -19 23 c-15 18 -17 28 -10 43 14 25 47 24 61 -2z m-916 -458 c137 -6 159 -16 83 -39 -54 -17 -152 -2 -224 34 -36 18 -41 23 -19 18 17 -4 89 -9 160 -13z m905 -51 c68 -1 80 -3 60 -12 -30 -12 -152 -4 -177 12 -16 10 -15 11 7 6 14 -3 63 -6 110 -6z"/></g></g><g id="l2irCmSMSCYc9vMhpgevEOy" fill="rgb(30,51,60)" style="transform: none;"><g style="transform: none;"><path id="pTNp0VcBs" d="M5572 9878 c-7 -84 -19 -202 -27 -263 -17 -126 -19 -175 -7 -175 5 0 18 98 30 218 27 274 31 333 23 355 -4 10 -12 -51 -19 -135z"/><path id="pb5qGUBSB" d="M5509 9395 c-8 -8 -717 -151 -1189 -240 -245 -46 -555 -107 -690 -135 -347 -72 -334 -70 -429 -70 -139 0 -247 36 -361 120 l-55 41 55 -53 c102 -97 211 -134 390 -132 121 2 150 6 350 49 69 14 426 87 795 161 583 117 873 179 1005 213 19 5 56 13 83 16 26 4 50 12 53 17 6 10 0 21 -7 13z"/><path id="pmsznaoqE" d="M3335 8830 c31 -208 243 -1255 253 -1246 8 9 -129 737 -184 981 -36 156 -75 306 -69 265z"/><path id="pZe4pzzNN" d="M8848 8787 c-23 -55 8 -201 60 -286 41 -67 138 -181 154 -181 6 0 -15 27 -46 60 -35 38 -73 95 -102 155 -42 84 -48 104 -53 182 -4 54 -9 81 -13 70z"/><path id="pKaIzNrFm" d="M7107 8165 c-8 -251 -11 -1314 -4 -1322 3 -2 5 45 6 106 1 60 3 118 5 128 9 43 15 975 8 1138 l-7 180 -8 -230z"/><path id="pOV4YBm6U" d="M3602 6972 c-33 -257 -138 -503 -279 -653 -116 -123 -277 -208 -426 -225 -31 -4 -60 -11 -64 -16 -6 -11 60 -5 157 14 212 41 404 209 515 452 68 148 120 370 113 482 -3 42 -5 33 -16 -54z"/><path id="pIbo9yHKz" d="M5520 4122 c-88 -6 -149 -37 -191 -96 -26 -35 -39 -86 -23 -86 4 0 26 18 49 39 24 22 61 49 83 60 52 27 158 43 227 35 30 -4 55 -4 55 -1 0 26 -119 55 -200 49z"/><path id="pV518Uayv" d="M5610 3742 c0 -5 34 -14 76 -20 102 -16 130 -30 127 -65 -1 -16 -34 -97 -72 -182 -108 -234 -182 -437 -167 -452 3 -4 21 27 40 68 18 41 73 155 120 253 129 267 150 340 103 371 -13 8 -66 19 -118 25 -115 12 -109 12 -109 2z"/><path id="p1DSu31QQ8" d="M4313 3332 c-16 -21 -39 -54 -52 -74 -41 -59 -84 -82 -160 -84 l-66 -1 -42 -79 c-104 -191 -148 -441 -108 -599 43 -167 165 -300 303 -330 31 -6 32 -8 32 -62 0 -237 211 -508 480 -617 121 -49 186 -61 345 -61 160 0 203 7 410 67 110 31 111 31 371 34 291 2 338 10 427 67 62 41 122 129 138 205 9 39 23 69 47 96 51 57 73 115 74 194 1 109 -34 203 -96 261 -22 21 -26 33 -26 83 0 102 -56 321 -67 263 -2 -11 -18 -80 -36 -153 -31 -131 -32 -133 -57 -128 -275 59 -528 11 -961 -185 -161 -73 -242 -93 -374 -93 -132 -1 -186 14 -300 80 -44 25 -89 51 -100 58 -11 6 -30 18 -43 27 l-22 16 30 65 c73 156 81 399 24 693 -30 154 -56 228 -97 273 -29 31 -43 28 -74 -16z m1582 -1177 c97 -26 157 -58 226 -123 59 -55 133 -162 112 -162 -5 0 -28 29 -51 63 -118 180 -358 261 -622 211 -45 -8 -90 -19 -99 -24 -9 -5 -53 -25 -98 -45 -46 -19 -118 -50 -160 -69 -119 -53 -223 -78 -350 -83 -96 -5 -121 -2 -185 17 -86 26 -136 50 -161 78 -14 16 -3 12 45 -13 185 -99 389 -87 697 41 188 78 290 113 358 124 75 12 212 5 288 -15z m-1420 -114 c-3 -3 -18 8 -33 23 l-27 29 32 -23 c18 -13 30 -26 28 -29z"/><path id="pzb6eP5XP" d="M5045 3285 c-51 -50 -17 -135 54 -135 49 0 81 32 81 82 0 70 -86 103 -135 53z"/><path id="pGiaExkiR" d="M5930 3250 c-24 -24 -26 -77 -4 -108 11 -16 25 -22 53 -22 48 0 71 24 71 73 0 46 -29 77 -70 77 -17 0 -39 -9 -50 -20z"/><path id="p1EqDNdT6a" d="M4930 3107 c0 -39 102 -87 185 -86 69 0 148 32 153 63 4 21 -11 20 -88 -9 -62 -23 -146 -15 -205 19 -32 19 -45 23 -45 13z"/><path id="pPunorqgJ" d="M5850 3062 c0 -32 91 -72 162 -72 60 0 138 31 138 55 0 19 -29 20 -56 1 -29 -20 -149 -16 -193 7 -38 19 -51 21 -51 9z"/><path id="pWBIdvlD0" d="M4820 2830 c0 -29 43 -83 85 -107 93 -52 258 -66 338 -28 46 21 55 45 27 67 -18 14 -41 18 -114 18 -114 0 -204 15 -278 44 -53 22 -58 22 -58 6z"/><path id="pLCbQIgj1" d="M5785 2750 c-13 -21 8 -51 48 -72 36 -19 58 -22 154 -23 98 0 115 3 140 21 28 21 52 68 41 79 -3 4 -33 -1 -66 -9 -75 -20 -141 -20 -212 -1 -65 17 -96 19 -105 5z"/></g></g><g id="l7jStR1YV9wPnwquFlIXocR" fill="rgb(235,151,114)" style="transform: none;"><g style="transform: none;"><path id="p14FPHvgJW" d="M6884 10095 c3 -8 1 -15 -5 -15 -6 0 -8 -4 -5 -9 9 -15 -75 -85 -179 -148 -103 -63 -303 -134 -418 -148 -32 -4 -60 -12 -63 -17 -8 -13 48 -4 181 27 134 31 254 76 338 126 80 47 183 142 173 158 -4 6 -3 11 3 11 6 0 8 7 5 15 -4 8 -13 15 -21 15 -9 0 -13 -6 -9 -15z"/><path id="p1DmuSHcgB" d="M7174 10095 c3 -8 0 -15 -6 -15 -6 0 -8 -3 -5 -6 20 -20 -156 -201 -262 -269 -65 -42 -170 -97 -246 -130 -16 -7 -43 -18 -60 -25 -16 -7 -34 -15 -40 -16 -198 -57 -235 -70 -235 -81 0 -16 -5 -17 58 7 29 11 65 22 80 24 15 2 34 6 42 9 8 4 53 18 100 33 100 31 231 94 321 154 156 106 335 330 263 330 -10 0 -14 -6 -10 -15z"/><path id="pOK7Nhbau" d="M11350 6959 c0 -8 7 -39 16 -68 8 -29 13 -59 10 -67 -3 -8 -1 -14 4 -14 6 0 10 -21 11 -47 0 -36 3 -43 9 -28 12 28 12 125 0 125 -5 0 -7 7 -4 15 4 8 2 15 -4 15 -6 0 -8 8 -5 18 2 10 -5 29 -16 43 -15 17 -20 20 -21 8z"/><path id="pcgwHVNzH" d="M11947 6785 c-37 -96 -99 -213 -135 -251 -11 -11 -25 -31 -31 -45 -17 -33 79 68 120 127 36 53 72 140 64 155 -4 5 -2 9 3 9 9 0 26 89 18 97 -2 2 -19 -39 -39 -92z"/><path id="pIdMvFTl9" d="M5616 5053 c-4 -4 -22 -6 -41 -5 -18 2 -36 -1 -39 -6 -3 -6 -15 -8 -25 -5 -10 3 -22 0 -25 -6 -4 -5 -13 -8 -20 -5 -8 3 -17 0 -21 -5 -3 -6 -10 -9 -15 -6 -11 7 -136 -42 -172 -67 -14 -10 -29 -18 -32 -18 -28 0 -216 -169 -216 -195 0 -8 18 -3 51 13 29 13 57 25 63 26 6 1 16 4 21 7 38 23 314 98 360 99 11 0 47 4 80 9 79 12 218 13 231 2 5 -5 18 -5 29 -1 18 7 21 18 24 85 l2 77 -35 -6 c-23 -4 -36 -3 -36 4 0 11 -172 14 -184 3z"/><path id="p1Ho8gf0SB" d="M4030 3651 c-61 -64 -92 -228 -54 -286 34 -52 137 -52 182 0 29 33 18 54 -12 26 -12 -11 -46 -25 -75 -31 -66 -12 -61 -13 -61 5 0 7 -6 18 -13 22 -13 9 -17 83 -3 83 4 0 6 11 4 25 -3 13 -2 26 2 27 5 2 10 14 12 28 1 14 6 30 10 35 35 48 62 75 78 80 29 9 24 25 -7 25 -17 0 -38 -13 -63 -39z"/></g></g></svg>