<svg
                    xmlns="http://www.w3.org/2000/svg"
                    width="41"
                    height="40"
                    viewBox="0 0 41 40"
                >
                    <g id="surface1">
                        <path fill="#FEFEFE" d="M0 0h41v40H0zm0 0"></path>
                        <path
                            fill="#FEFEFE"
                            d="M19.195 8.844q.075.033.157.066c.703.317 1.37.64 1.976 1.121.05.035.05.035.102.078a7.62 7.62 0 0 1 2.742 4.551l.035.164c.09.531.11 1.059.105 1.598v.133c0 .68-.039 1.316-.257 1.96l-.051.153a8 8 0 0 1-.957 1.984q-.054.087-.113.172c-.293.426-.637.797-.993 1.172a5 5 0 0 0-.191.203c-1.156 1.223-3.05 2.055-4.719 2.145q-.325.005-.652.004h-.219c-.46 0-.898-.04-1.348-.133-.066-.016-.066-.016-.132-.027a6.8 6.8 0 0 1-1.528-.508l-.12-.059c-1.895-.91-3.235-2.336-4.145-4.215l-.082-.164c-.715-1.601-.672-3.89-.086-5.515.812-2.118 2.367-3.82 4.441-4.762 1.871-.813 4.145-.973 6.035-.121m0 0"
                        ></path>
                        <path
                            fill="#666EC5"
                            d="M15.965 5.39h.152c1.434.005 1.434.005 2.133.13.047.007.098.02.148.027a11.1 11.1 0 0 1 7.059 4.601c1.398 2.082 1.867 4.403 1.797 6.883q-.002.07-.004.14c-.047 1.474-.43 3.044-1.18 4.313l-.07.118a12.5 12.5 0 0 1-3.781 4.035q-.052.034-.106.074c-.578.383-1.187.644-1.836.887a6 6 0 0 0-.246.097c-.367.149-.75.215-1.14.285-.07.012-.137.028-.207.04-.797.144-1.586.175-2.395.175-.152 0-.309.004-.46.004a9.2 9.2 0 0 1-1.966-.195c-.039-.008-.082-.02-.125-.027-.687-.145-1.312-.391-1.949-.688l-.148-.066c-1.02-.477-1.942-1.043-2.754-1.832l-.239-.203c-1.847-1.625-3.003-4.254-3.199-6.68-.008-.195-.008-.395-.008-.59v-.504c0-.172-.003-.34-.003-.512 0-.586.015-1.144.132-1.718q.011-.07.028-.145c.37-1.93 1.222-3.652 2.578-5.078l.094-.098c2.039-2.156 4.722-3.476 7.695-3.472m-1.332 3.098q-.064.014-.13.028c-2.097.492-3.878 1.859-5.03 3.664-1.059 1.773-1.387 3.765-1 5.8l.035.215c.27 1.407 1.07 2.617 2.039 3.645.043.047.082.094.129.14 1.265 1.352 3.18 2.286 5.035 2.36.84.02 1.66.035 2.476-.184q.1-.029.192-.05c2.191-.61 3.926-2.126 5.05-4.075.255-.484.45-1 .626-1.515l.043-.121c.422-1.297.3-2.97-.043-4.27L24.023 14c-.511-1.855-1.753-3.496-3.418-4.46-.57-.321-1.144-.599-1.765-.817q-.104-.044-.215-.086c-1.238-.465-2.719-.453-3.992-.149M27.078 24.094c.082.082.082.082.176.195.281.336.59.64.898.95.067.066.133.128.2.195q.21.215.421.425l.672.668c.473.477.95.95 1.422 1.426a571 571 0 0 1 2.207 2.203c.137.137.274.278.414.414l.192.192c.34.34.672.683.98 1.047q.084.098.168.191c.813.926.813.926.945 1.5-.09.398-.27.828-.574 1.105-.398.247-.797.274-1.25.23-1.015-.269-2.015-1.593-2.722-2.312-.047-.046-.094-.097-.145-.144q-.06-.064-.125-.129c-.117-.117-.242-.223-.367-.332a14 14 0 0 1-.703-.668c-.063-.066-.063-.066-.13-.129l-.413-.414c-.098-.098-.192-.195-.29-.289l-.605-.61-.773-.773-.598-.598-.285-.285a39 39 0 0 0-.516-.52 12 12 0 0 1-.644-.698c-.133-.149-.278-.286-.422-.422a1.2 1.2 0 0 1-.207-.399c.355-.457.734-.879 1.144-1.285l.278-.281.176-.176.16-.16c.136-.117.136-.117.316-.117m0 0"
                        ></path>
                    </g>
                </svg>