<svg xmlns="http://www.w3.org/2000/svg" version="1.1" viewBox="0 0 2048 690" width="173.5" height="58.5"><path transform="translate(274,131)" d="m0 0h13l19 2 21 5 16 6 15 8 13 10 10 9 12 12 10 13 9 16 8 21 4 14 1 8v41l-3 16-7 19-11 21-12 16-15 15-15 11-16 9-19 8-19 5-12 2h-29l-20-4-21-7-16-8-10-6-10-8-17-17-11-15-8-14-6-13-5-15-3-15-1-9v-23l3-21 6-20 10-21 11-16 11-12 8-8 15-11 16-9 16-7 17-5zm0 40-18 3-15 5-15 8-10 8-15 15-10 14-7 16-4 15-1 6v27l3 15 6 17 9 15 11 13 11 10 13 8 13 6 17 5 14 2h11l15-2 15-4 12-5 14-9 11-9 11-12 10-16 6-14 4-14 1-7v-24l-3-15-5-15-8-15-7-9-9-10-14-11-10-6-21-8-16-3z" fill="#646DC3"></path><path transform="translate(858,242)" d="m0 0h24l14 1 15 5 16 10 9 8 10 13 8 17 4 17v23l-4 17-8 17-10 13-7 7-14 9-15 6-17 3h-18l-19-4-17-8-12-9-9-9-7-11-5-10-4-13-2-16 2-21 5-15 6-12 9-12 9-9 10-7 14-7z" fill="#010101"></path><path transform="translate(1011,245)" d="m0 0h25l31 1 12 2 16 6 11 8 8 10 6 13 1 5v24l-3 10-6 10-12 12-5 3 1 5 13 24 8 16 4 10v3l-5 1h-38l-8-16-15-33-7-1-17-1v37l-1 14h-20l-19-1-1-108 1-50 1-2 3-1z" fill="#010101"></path><path transform="translate(1680,246)" d="m0 0h41l20 53 18 47 16 43 5 14v4l-3 1h-34l-5-1-9-21-1-2h-59l-10 24-3 1-25-1-9-1-2-1 1-7 19-50 38-98z" fill="#010101"></path><path transform="translate(1217,242)" d="m0 0h24l14 1 13 4 17 9 11 8 1 5-7 11-9 10-4 5-4-1-7-6-10-5-11-3h-20l-10 4-8 5-5 5-6 9-3 7-1 5v17l5 16 7 10 7 6 11 5 4 1h16l14-4 4-4 1-11h-21v-17l1-17h56l1 68-4 4-14 8-12 5-16 5-6 1h-21l-14-2-15-6-15-9-12-11-9-13-6-13-3-11-1-6v-26l4-15 8-16 10-13 8-8 14-9 11-5z" fill="#010101"></path><path transform="translate(1330,244)" d="m0 0h36l1 99 2 10 6 10 9 6 3 1h12l10-4 8-9 2-6 1-10 1-25 1-72h39v34l-1 66-1 14-4 13-7 12-10 11-9 6-12 5-17 3h-15l-15-3-12-5-13-10-8-10-9-16-2-4-1-25v-87l1-3z" fill="#010101"></path><path transform="translate(693,242)" d="m0 0h15l17 3 16 5 16 8 5 4-2 10-6 18-2 4-6-2-21-11-11-3-12-1-9 2-6 5-1 2v7l5 6 12 6 26 9 19 10 7 7 6 12 2 11-1 14-3 10-6 11-5 6-8 6-11 5-12 3-8 1h-10l-18-2-17-5-19-9-14-11 3-11 6-18 3-5 5 2 15 12 16 8 13 3h12l10-3 4-3 1-7-3-7-5-4-11-5-21-7-14-6-10-7-7-7-6-12-1-6v-13l3-13 6-11 8-8 10-6 11-4z" fill="#010101"></path><path transform="translate(1796,246)" d="m0 0h97l15 1 1 33h-39l-1 103-1 25h-38l-1-10v-117l-40-1v-22l1-11z" fill="#010101"></path><path transform="translate(1491,246)" d="m0 0h33l4 1 1 70v54l60 1 1 1 1 22v13h-101l-1-1-1-48v-103l1-9z" fill="#010101"></path><path transform="translate(421,376)" d="m0 0 7 6 87 87 7 8 9 10 4 7v9l-4 7-6 5-2 1h-14l-10-9-8-7-12-12-8-7-77-77 6-7z" fill="#646DC3"></path><path transform="translate(871,278)" d="m0 0 15 1 10 4 10 9 6 10 4 11 1 5v17l-4 11-6 10-9 8-12 6-4 1h-17l-12-6-10-9-6-8-4-11-1-7v-10l2-12 6-12 7-8 11-7 5-2z" fill="#FBFBFD"></path><path transform="translate(1032,280)" d="m0 0h22l13 2 8 4 6 7 2 4v11l-4 7-10 5-14 2h-23l-1-1v-40z" fill="#F6F7FB"></path><path transform="translate(1698,295)" d="m0 0h2l18 53v2l-15 1h-16l-6-2 4-16 12-34z" fill="#F6F6FB"></path></svg>